# xmcd
#
# Track frame offsets: 
#        183
#        24418
#        41430
#        55915
#        72875
#        94133
#        109155
#        127413
#
# Disc length: 1928 seconds
#
# Revision: 0
# Processed by: cddbd v1.5.1PL0 Copyright (c) Steve Scherf et al.
# Submitted via: ExactAudioCopy v0.95a5
#
DISCID=6d078608
DTITLE=이선희 - 우리들의 이야기
DYEAR=1991
DGENRE=Ballad
TTITLE0=군대가는 친구
TTITLE1=사랑해요 엄마
TTITLE2=스무송이의 장미
TTITLE3=선생님께
TTITLE4=안녕 내 친구야
TTITLE5=Merry Christmas and Happy New Year
TTITLE6=슬픈 Christmas
TTITLE7=지나간 한해를 다시 생각해보면
EXTD=
EXTT0=
EXTT1=
EXTT2=
EXTT3=
EXTT4=
EXTT5=
EXTT6=
EXTT7=
PLAYORDER=
